<svg width="18" height="21" viewBox="0 0 18 21" fill="none" xmlns="http://www.w3.org/2000/svg">
<path fill-rule="evenodd" clip-rule="evenodd" d="M15.2308 11.7462C15.3692 12.5769 15.5077 13.2692 15.7846 14.1L16.6154 16.4538L15.9231 17.4231H11.0769C11.0769 18.1154 10.8 18.8077 10.2462 19.3615C9.69231 19.9154 9 20.1923 8.30769 20.1923C7.61539 20.1923 6.78462 19.9154 6.36923 19.3615C5.81538 18.8077 5.53846 18.1154 5.53846 17.4231H0.692308L0 16.4538L0.830769 14.1C1.10769 12.9923 1.38462 11.8846 1.38462 10.7769V7.73077C1.38462 6.76154 1.52308 5.79231 1.93846 4.96154C2.35385 3.99231 2.90769 3.3 3.6 2.60769C4.29231 1.91538 5.12308 1.5 6.09231 1.22308C6.78462 0.946153 7.61539 0.807692 8.30769 0.807692C8.03077 1.22308 7.75385 1.77692 7.47692 2.33077C7.2 2.33077 6.92308 2.33077 6.50769 2.60769C5.81538 2.74615 5.12308 3.16154 4.56923 3.71538C4.01539 4.13077 3.46154 4.82308 3.18462 5.51538C2.90769 6.20769 2.76923 6.9 2.76923 7.73077V10.7769C2.76923 12.0231 2.49231 13.2692 2.21538 14.5154L1.66154 16.0385H14.9538L14.4 14.5154C14.1577 13.7871 14.0206 12.9508 13.8974 12.1975L13.8462 11.8846C14.4 11.8846 14.8154 11.8846 15.2308 11.7462ZM8.30769 18.8077C8.58462 18.8077 9 18.6692 9.27692 18.3923C9.55385 18.1154 9.69231 17.8385 9.69231 17.4231H6.92308C6.92308 17.8385 7.06154 18.1154 7.33846 18.3923C7.61539 18.6692 8.03077 18.8077 8.30769 18.8077ZM18 4.96154C18 6.06321 17.5624 7.11975 16.7834 7.89875C16.0044 8.67775 14.9478 9.11539 13.8462 9.11539C12.7445 9.11539 11.6879 8.67775 10.9089 7.89875C10.1299 7.11975 9.69231 6.06321 9.69231 4.96154C9.69231 3.85987 10.1299 2.80332 10.9089 2.02433C11.6879 1.24533 12.7445 0.807692 13.8462 0.807692C14.9478 0.807692 16.0044 1.24533 16.7834 2.02433C17.5624 2.80332 18 3.85987 18 4.96154Z" fill="white"/>
</svg>
